<?xml version="1.0" encoding="UTF-8" standalone="no"?>
<!-- Created with Inkscape (http://www.inkscape.org/) -->

<svg
   xmlns:dc="http://purl.org/dc/elements/1.1/"
   xmlns:cc="http://creativecommons.org/ns#"
   xmlns:rdf="http://www.w3.org/1999/02/22-rdf-syntax-ns#"
   xmlns:svg="http://www.w3.org/2000/svg"
   xmlns="http://www.w3.org/2000/svg"
   xmlns:sodipodi="http://sodipodi.sourceforge.net/DTD/sodipodi-0.dtd"
   xmlns:inkscape="http://www.inkscape.org/namespaces/inkscape"
   width="100"
   height="100"
   viewBox="0 0 100 100"
   id="svg3336"
   version="1.1"
   inkscape:version="0.91 r13725"
   inkscape:export-filename="C:\Users\jeevan\Desktop\android\androidprojects\MyGoodDeeds\icon.png"
   inkscape:export-xdpi="90"
   inkscape:export-ydpi="90"
   sodipodi:docname="icon.svg">
  <defs
     id="defs3338" />
  <sodipodi:namedview
     id="base"
     pagecolor="#ffffff"
     bordercolor="#666666"
     borderopacity="1.0"
     inkscape:pageopacity="0.0"
     inkscape:pageshadow="2"
     inkscape:zoom="2"
     inkscape:cx="56.77554"
     inkscape:cy="34.431373"
     inkscape:document-units="px"
     inkscape:current-layer="layer1"
     showgrid="false"
     units="px"
     inkscape:showpageshadow="false"
     inkscape:snap-grids="false"
     inkscape:snap-center="true"
     inkscape:snap-page="false"
     inkscape:snap-to-guides="false"
     inkscape:object-paths="false"
     inkscape:snap-nodes="false"
     inkscape:snap-bbox="false"
     inkscape:window-width="1600"
     inkscape:window-height="837"
     inkscape:window-x="-8"
     inkscape:window-y="-8"
     inkscape:window-maximized="1"
     showborder="true" />
  <metadata
     id="metadata3341">
    <rdf:RDF>
      <cc:Work
         rdf:about="">
        <dc:format>image/svg+xml</dc:format>
        <dc:type
           rdf:resource="http://purl.org/dc/dcmitype/StillImage" />
        <dc:title></dc:title>
      </cc:Work>
    </rdf:RDF>
  </metadata>
  <g
     inkscape:label="Layer 1"
     inkscape:groupmode="layer"
     id="layer1"
     transform="translate(0,-952.36216)">
    <circle
       style="fill:#ff0000;fill-rule:evenodd;stroke:#000000;stroke-width:0.97689003px;stroke-linecap:butt;stroke-linejoin:miter;stroke-opacity:1"
       id="path3429"
       cy="1002.3431"
       cx="50.369263"
       r="49.511555" />
    <circle
       cx="50.369263"
       cy="1002.3431"
       id="circle3433"
       style="fill:#ff0000;fill-rule:evenodd;stroke:#000000;stroke-width:0.87920094px;stroke-linecap:butt;stroke-linejoin:miter;stroke-opacity:1"
       r="44.560398" />
    <path
       style="fill:#fff6d5;fill-opacity:1"
       d="m 45.87554,98.640332 c -0.4125,-0.09987 -2.4375,-0.453735 -4.5,-0.786355 C 22.658279,94.835452 6.759438,79.346587 2.5941299,60.072602 1.5631264,55.301872 1.4159405,45.404448 2.312263,41.118627 4.5588825,30.376276 9.086996,22.107501 16.687667,14.867741 23.057445,8.8004265 29.70487,4.9810784 37.776307,2.7510395 40.97153,1.8682387 43.069746,1.6816891 50.12554,1.6530854 c 7.38947,-0.029956 9.0509,0.116074 12.716585,1.1177153 16.477715,4.5025053 29.62115,17.3077103 34.28542,33.4031243 3.832595,13.225494 2.11081,27.084547 -4.812715,38.738562 -6.84841,11.527575 -18.586355,19.972605 -31.631575,22.757775 -3.3657,0.718585 -13.188605,1.36209 -14.807715,0.97007 z m 15.784915,-5.029115 c 7.973835,-2.00323 15.13455,-6.20177 20.99754,-12.311485 5.60404,-5.83987 8.453355,-10.626615 10.971125,-18.431105 1.84055,-5.70528 2.29266,-15.25117 1.01983,-21.532847 C 91.126305,23.950814 78.576735,10.76366 61.08331,6.064829 55.868905,4.6642114 44.521008,4.7435954 39.12554,6.218434 21.979328,10.905311 9.2560485,24.503691 6.0193805,41.601618 c -1.1697563,6.179321 -0.672655,15.764519 1.102936,21.267009 3.2550325,10.087225 8.8706815,17.93349 17.0032235,23.757145 10.980785,7.86326 24.227654,10.32857 37.534915,6.985445 z"
       id="path3348"
       inkscape:connector-curvature="0"
       transform="translate(0,952.36216)" />
    <path
       style="fill:#ccffaa;fill-opacity:1"
       d="M 42.957496,93.341752 C 25.897343,90.289857 12.325882,77.678012 7.7445237,60.618627 6.2288168,54.974661 6.2583809,44.832527 7.8071958,39.118627 13.156795,19.382843 30.190949,6.2168736 50.37554,6.2168736 c 20.169765,0 37.325485,13.2662744 42.54799,32.9017534 1.44595,5.436446 1.57859,14.89422 0.28617,20.405265 -3.772225,16.085295 -15.454945,28.305495 -31.420975,32.86653 -4.223665,1.20658 -14.501808,1.72582 -18.831229,0.95133 z"
       id="path3350"
       inkscape:connector-curvature="0"
       transform="translate(0,952.36216)" />
    <path
       style="fill:#28220b;fill-opacity:1"
       d="m 56.221324,1032.7873 c -0.05024,-0.049 -3.197631,-0.1814 -6.994225,-0.2966 -3.796596,-0.1157 -6.930513,-0.2829 -6.96426,-0.3725 -0.03374,-0.089 -0.67572,-0.1621 -1.426601,-0.1621 -0.750881,0 -1.36524,-0.07 -1.36524,-0.1529 0,-0.084 -0.766221,-0.2079 -1.702715,-0.2759 -0.936496,-0.067 -1.730326,-0.1995 -1.764075,-0.2926 -0.03374,-0.093 -0.427215,-0.1692 -0.874367,-0.1692 -0.447151,0 -0.81301,-0.071 -0.81301,-0.1565 0,-0.085 -0.621255,-0.2134 -1.380582,-0.2823 -0.759316,-0.069 -1.38058,-0.1983 -1.38058,-0.2878 0,-0.089 -0.248496,-0.162 -0.55223,-0.162 -0.303735,0 -0.552222,-0.075 -0.552222,-0.1657 0,-0.091 -0.455607,-0.2201 -1.012432,-0.2875 -0.556834,-0.068 -1.012422,-0.1933 -1.012422,-0.2798 0,-0.087 -0.165681,-0.1585 -0.368162,-0.1585 -0.20249,0 -0.368152,-0.07 -0.368152,-0.153 0,-0.083 -0.434378,-0.2029 -0.965291,-0.2639 -0.530904,-0.061 -0.993396,-0.192 -1.02776,-0.2917 -0.03432,-0.1 -0.304084,-0.1812 -0.599379,-0.1812 -0.295278,0 -0.536884,-0.074 -0.536884,-0.1656 0,-0.091 -0.455591,-0.2202 -1.012424,-0.2876 -0.556832,-0.068 -1.012433,-0.1858 -1.012433,-0.2633 0,-0.076 -0.786934,-0.1978 -1.748728,-0.2677 -0.961803,-0.07 -1.748738,-0.1972 -1.748738,-0.2835 0,-0.087 -1.15969,-0.1568 -2.577076,-0.1568 l -2.577094,0 0,-10.9405 0,-10.9403 0.598255,-0.089 c 0.329027,-0.049 1.175398,-0.1245 1.880798,-0.169 0.705401,-0.045 1.312862,-0.1674 1.349905,-0.2756 0.03701,-0.1069 0.267535,-0.1956 0.512201,-0.1956 0.244666,0 0.444859,-0.078 0.444859,-0.1744 0,-0.096 0.224104,-0.2291 0.498,-0.2955 0.463218,-0.1121 1.34278,-0.7986 1.34278,-1.0477 0,-0.1986 0.469989,-0.5693 0.882939,-0.696 0.223072,-0.068 0.405604,-0.2393 0.405604,-0.3794 0,-0.1406 0.08286,-0.2551 0.184076,-0.2551 0.101231,0 0.184067,-0.1603 0.184067,-0.3561 0,-0.1959 0.08286,-0.3561 0.184076,-0.3561 0.10125,0 0.184076,-0.1032 0.184076,-0.2277 0,-0.1247 0.165672,-0.3432 0.368153,-0.4844 0.202499,-0.14055 0.368162,-0.35885 0.368162,-0.48435 0,-0.1246 0.08286,-0.2276 0.184076,-0.2276 0.10124,0 0.184076,-0.121 0.184076,-0.267 0,-0.1461 0.08872,-0.2671 0.197226,-0.2671 0.235069,0 0.723164,-0.4456 0.723164,-0.6601 0,-0.083 0.165671,-0.2668 0.368152,-0.4082 0.202491,-0.1405 0.368162,-0.3413 0.368162,-0.4449 0,-0.1033 0.175809,-0.3063 0.390696,-0.4503 0.214896,-0.1441 0.498902,-0.362 0.631139,-0.4843 0.132219,-0.1228 0.293659,-0.2225 0.358741,-0.2225 0.0651,0 0.232604,-0.1 0.372291,-0.2227 0.139668,-0.1228 0.509458,-0.4228 0.821745,-0.6675 0.312277,-0.2448 0.822097,-0.6655 1.132932,-0.9346 0.310837,-0.2694 0.645151,-0.4896 0.742918,-0.4896 0.214094,0 0.70149,-0.45 0.709203,-0.655 0.0034,-0.08 0.256725,-0.3464 0.563775,-0.5912 0.307051,-0.2448 0.746466,-0.6157 0.976493,-0.8243 0.23002,-0.2086 0.597583,-0.4343 0.816797,-0.5017 0.219222,-0.068 0.398589,-0.2048 0.398589,-0.3058 0,-0.1908 0.777745,-0.9348 1.452269,-1.3895 0.213678,-0.1441 0.388509,-0.3298 0.388509,-0.4132 0,-0.1762 0.47155,-0.6601 0.644266,-0.6601 0.159434,0 0.644275,-0.4772 0.644275,-0.6339 0,-0.1318 0.445268,-0.5269 1.087292,-0.9632 0.211929,-0.1441 0.385323,-0.3298 0.385323,-0.4131 0,-0.2147 0.488084,-0.6601 0.723161,-0.6601 0.108476,0 0.197226,-0.1033 0.197226,-0.2277 0,-0.1247 0.16567,-0.3432 0.368156,-0.4844 0.202485,-0.1407 0.368153,-0.3414 0.368153,-0.445 0,-0.1033 0.165671,-0.304 0.368155,-0.4451 0.202485,-0.1408 0.368154,-0.3591 0.368154,-0.4845 0,-0.1246 0.08283,-0.2277 0.184076,-0.2277 0.101243,0 0.18408,-0.084 0.18408,-0.1909 0,-0.2463 0.468309,-0.6992 0.723159,-0.6992 0.108477,0 0.197227,-0.1192 0.197227,-0.2669 0,-0.1461 0.08283,-0.2672 0.184078,-0.2672 0.101243,0 0.184076,-0.1548 0.184076,-0.3441 0,-0.1892 0.165671,-0.3949 0.368154,-0.457 0.202484,-0.062 0.368157,-0.2279 0.368157,-0.3679 0,-0.1407 0.08283,-0.2552 0.184078,-0.2552 0.101242,0 0.184076,-0.1601 0.184076,-0.356 0,-0.1959 0.08283,-0.356 0.184078,-0.356 0.101242,0 0.184077,-0.1192 0.184077,-0.2671 0,-0.146 0.08283,-0.267 0.184078,-0.267 0.101243,0 0.184077,-0.2004 0.184077,-0.4451 0,-0.2448 0.08283,-0.4451 0.184077,-0.4451 0.101243,0 0.184078,-0.121 0.184078,-0.2671 0,-0.1459 0.124252,-0.2669 0.276116,-0.2669 0.171799,0 0.276115,-0.1674 0.276115,-0.4451 0,-0.2447 0.08284,-0.4451 0.184078,-0.4451 0.101242,0 0.184077,-0.2003 0.184077,-0.445 0,-0.2449 0.08283,-0.4451 0.184077,-0.4451 0.101243,0 0.184077,-0.2804 0.184077,-0.6231 0,-0.3426 0.08283,-0.6231 0.184079,-0.6231 0.101242,0 0.184076,-0.2003 0.184076,-0.445 0,-0.2448 0.08283,-0.4451 0.184078,-0.4451 0.101243,0 0.184078,-0.091 0.184078,-0.2018 0,-0.2469 0.714803,-0.8663 0.999954,-0.8663 0.114017,0 0.326719,-0.1602 0.472663,-0.356 0.228586,-0.3068 0.47652,-0.3561 1.789373,-0.3561 0.893296,0 1.524021,0.073 1.524021,0.178 0,0.098 0.165669,0.1781 0.368154,0.1781 0.202485,0 0.368155,0.08 0.368155,0.1779 0,0.098 0.159762,0.1781 0.355006,0.1781 0.195254,0 0.479259,0.1211 0.631122,0.267 0.151865,0.146 0.329368,0.267 0.394452,0.267 0.06509,0 0.231636,0.1 0.370111,0.2225 0.138482,0.1229 0.588152,0.4982 0.999277,0.835 0.411126,0.3369 0.747502,0.7175 0.747502,0.8457 0,0.1281 0.08284,0.2332 0.184076,0.2332 0.101244,0 0.184078,0.1602 0.184078,0.356 0,0.1977 0.122724,0.3561 0.276118,0.3561 0.178241,0 0.276479,0.1744 0.277141,0.4895 5.53e-4,0.2692 0.09165,0.8052 0.202428,1.1913 0.249049,0.8674 -0.131614,3.3039 -0.516206,3.3039 -0.15098,0 -0.239481,0.2302 -0.239481,0.6231 0,0.3427 -0.08283,0.623 -0.184078,0.623 -0.101241,0 -0.184076,0.2003 -0.184076,0.4451 0,0.2448 -0.08283,0.445 -0.184078,0.445 -0.101243,0 -0.184077,0.2003 -0.184077,0.4451 0,0.2448 -0.08283,0.4451 -0.184078,0.4451 -0.101242,0 -0.184076,0.121 -0.184076,0.2671 0,0.1459 -0.08283,0.267 -0.184078,0.267 -0.101243,0 -0.184077,0.1601 -0.184077,0.356 0,0.1958 -0.08284,0.356 -0.184077,0.356 -0.101243,0 -0.184078,0.1602 -0.184078,0.3561 0,0.1958 -0.08283,0.356 -0.184077,0.356 -0.101242,0 -0.184078,0.1602 -0.184078,0.3562 0,0.1977 -0.122724,0.3559 -0.276116,0.3559 -0.151864,0 -0.276115,0.1212 -0.276115,0.2671 0,0.146 -0.08284,0.267 -0.184078,0.267 -0.101242,0 -0.184078,0.121 -0.184078,0.267 0,0.1459 -0.08283,0.2671 -0.184077,0.2671 -0.101244,0 -0.184076,0.1601 -0.184076,0.356 0,0.1959 -0.08284,0.3561 -0.184079,0.3561 -0.101242,0 -0.184077,0.2003 -0.184077,0.4451 0,0.2447 -0.08283,0.445 -0.184078,0.445 -0.101242,0 -0.184077,0.1211 -0.184077,0.267 0,0.146 -0.08283,0.2672 -0.184078,0.2672 -0.101242,0 -0.184076,0.2002 -0.184076,0.445 0,0.2449 -0.08283,0.4451 -0.184078,0.4451 -0.101242,0 -0.184077,0.4405 -0.184077,0.979 0,0.7517 -0.06415,0.9792 -0.276115,0.9792 -0.153393,0 -0.276117,0.1584 -0.276117,0.3561 0,0.1977 0.122724,0.356 0.276117,0.356 0.199415,0 0.276115,0.1978 0.276115,0.7122 0,0.3915 0.08283,0.712 0.184077,0.712 0.101243,0 0.184078,0.087 0.184078,0.1956 0,0.3141 1.11073,1.2286 1.492086,1.2286 0.191777,0 0.348688,0.08 0.348688,0.1781 0,0.1103 1.043105,0.178 2.761159,0.178 1.518638,0 2.761161,-0.071 2.761161,-0.1585 0,-0.087 1.408192,-0.216 3.129315,-0.2873 1.721124,-0.071 3.129314,-0.2008 3.129314,-0.2876 0,-0.087 0.821446,-0.1584 1.825435,-0.1584 1.143796,0 1.850185,-0.07 1.891721,-0.1923 0.102328,-0.2969 11.22822,-0.3266 11.330817,-0.03 0.04237,0.1228 0.318653,0.2225 0.613942,0.2225 0.295292,0 0.536893,0.08 0.536893,0.178 0,0.098 0.159761,0.1781 0.355006,0.1781 0.195254,0 0.479259,0.121 0.631122,0.2669 0.151864,0.146 0.364869,0.267 0.473341,0.267 0.108478,0 0.197227,0.1034 0.197227,0.2278 0,0.1246 0.16567,0.3432 0.368155,0.4844 0.324969,0.2265 0.368155,0.4609 0.368155,1.9976 0,1.04185 -0.07391,1.74085 -0.184078,1.74085 -0.101243,0 -0.184077,0.1603 -0.184077,0.3561 0,0.1958 -0.08284,0.356 -0.184079,0.356 -0.101241,0 -0.184076,0.1603 -0.184076,0.3561 0,0.1978 -0.122724,0.356 -0.276116,0.356 -0.199416,0 -0.276116,0.1979 -0.276116,0.7122 0,0.6408 0.04602,0.712 0.460193,0.712 0.253107,0 0.460194,0.07 0.460194,0.155 0,0.085 0.414173,0.2082 0.920385,0.2731 0.506214,0.067 0.920388,0.1954 0.920388,0.2899 0,0.094 0.171578,0.1727 0.381303,0.1727 0.209716,0 0.48949,0.1 0.621717,0.2225 0.132223,0.1229 0.416232,0.3404 0.631122,0.4845 0.21489,0.1441 0.390709,0.4443 0.390709,0.6675 0,0.2232 0.08284,0.4057 0.184079,0.4057 0.107371,0 0.184076,0.5934 0.184076,1.4243 0,0.8307 -0.07671,1.4242 -0.184076,1.4242 -0.101244,0 -0.184079,0.1602 -0.184079,0.356 0,0.1957 -0.08283,0.3561 -0.184078,0.3561 -0.101242,0 -0.184077,0.1032 -0.184077,0.2277 0,0.1245 -0.175812,0.3455 -0.390708,0.4895 -0.214892,0.1442 -0.498897,0.362 -0.631124,0.4844 -0.132222,0.1229 -0.40324,0.2226 -0.602249,0.2226 -0.492754,0 -1.505233,0.9463 -1.505233,1.4065 0,0.2055 0.07906,0.3737 0.175719,0.3737 0.09664,0 0.382796,0.2003 0.635903,0.4451 0.253107,0.2447 0.616954,0.4451 0.808551,0.4451 0.354022,0 1.140996,0.5526 1.140996,0.8011 0,0.074 0.146581,0.2658 0.325731,0.4242 0.535178,0.4729 0.824147,1.8728 0.567614,2.7495 -0.222869,0.7616 -1.444814,2.078 -1.929034,2.078 -0.139071,0 -0.252852,0.08 -0.252852,0.178 0,0.098 -0.130161,0.1781 -0.289266,0.1781 -0.159098,0 -0.413516,0.121 -0.56538,0.267 -0.151864,0.1459 -0.435868,0.267 -0.631122,0.267 -0.195252,0 -0.355006,0.075 -0.355006,0.1656 0,0.091 -0.182513,0.2219 -0.405589,0.2904 -0.223074,0.067 -0.512996,0.2283 -0.644271,0.3552 -0.281074,0.2719 -0.320352,0.9685 -0.0546,0.9685 0.101243,0 0.184078,0.1193 0.184078,0.2671 0,0.146 0.124252,0.267 0.276115,0.267 0.151865,0 0.276117,0.1548 0.276117,0.3442 0,0.1889 0.165669,0.3947 0.368154,0.457 0.206354,0.064 0.368156,0.2693 0.368156,0.4687 0,0.1957 0.08722,0.5134 0.193798,0.706 0.20323,0.3673 -0.115489,1.5846 -0.414855,1.5846 -0.0809,0 -0.147098,0.085 -0.147098,0.1907 0,0.2466 -0.468309,0.6994 -0.72316,0.6994 -0.108477,0 -0.197225,0.078 -0.197225,0.1746 0,0.096 -0.227796,0.2288 -0.506213,0.2954 -0.278418,0.066 -0.630542,0.2574 -0.782502,0.4246 -0.151956,0.1673 -0.545424,0.3608 -0.874366,0.4307 -0.328943,0.069 -0.59808,0.2007 -0.59808,0.2909 0,0.091 -0.16567,0.1638 -0.368154,0.1638 -0.202486,0 -0.368156,0.069 -0.368156,0.1549 0,0.084 -0.414173,0.2082 -0.920386,0.2731 -0.506213,0.064 -0.920387,0.1954 -0.920387,0.2899 0,0.094 -0.289922,0.1726 -0.644271,0.1726 -0.354348,0 -0.64427,0.072 -0.64427,0.1621 0,0.089 -0.704096,0.2188 -1.564657,0.2881 -0.860563,0.069 -1.564659,0.1967 -1.564659,0.283 0,0.087 -0.448687,0.1566 -0.997086,0.1566 -0.548396,0 -1.024695,0.072 -1.058444,0.1638 -0.03374,0.091 -2.297898,0.2497 -5.031447,0.3549 -2.733548,0.105 -5.798758,0.2379 -6.811576,0.2953 -1.012818,0.056 -1.882583,0.066 -1.932813,0.017 l 0,0 z"
       id="path3527"
       inkscape:connector-curvature="0" />
  </g>
</svg>
